<?xml version="1.0" encoding="UTF-8"?>
<!-- Generated by Pixelmator Pro Trial 3.3.2 -->
<svg width="36" height="36" viewBox="0 0 36 36" xmlns="http://www.w3.org/2000/svg" xmlns:xlink="http://www.w3.org/1999/xlink">
    <path id="Path" fill="#0d0821" stroke="none" d="M 0 0 L 36 0 L 36 36 L 0 36 Z"/>
    <g id="Group">
        <g id="g1">
            <g id="g2">
                <g id="g3">
                    <g id="g4">
                        <g id="g5">
                            <g id="g6">
                                <linearGradient id="linearGradient1" x1="18.5" y1="34.632034" x2="18.5" y2="1.60561" gradientUnits="userSpaceOnUse">
                                    <stop offset="0" stop-color="#f97199" stop-opacity="1"/>
                                    <stop offset="1" stop-color="#ffde40" stop-opacity="1"/>
                                </linearGradient>
                                <path id="path1" fill="url(#linearGradient1)" stroke="none" d="M 18.5 1.60561 C 9.395308 1.60561 2 9.004383 2 18.118822 C 2 27.233263 9.395308 34.632034 18.5 34.632034 C 27.604691 34.632034 35 27.233263 35 18.118822 C 35 9.004383 27.604691 1.60561 18.5 1.60561 Z M 18.5 2.717697 C 27.019655 2.717697 33.912788 9.608913 33.912788 18.118822 C 33.912788 26.628731 27.019655 33.519947 18.5 33.519947 C 9.980342 33.519947 3.087209 26.628731 3.087209 18.118822 C 3.087209 9.608913 9.980342 2.717697 18.5 2.717697 Z"/>
                            </g>
                        </g>
                    </g>
                </g>
                <g id="g7">
                    <g id="g8">
                        <g id="g9">
                            <g id="g10">
                                <path id="Rectangle" fill="#0d0821" fill-rule="evenodd" stroke="none" d="M 0 26 L 28 26 L 28 10 L 0 10 Z"/>
                                <path id="path2" fill="#ffffff" stroke="none" d="M 3.100006 18.156124 C 3.100006 22.356052 6.371104 25.950222 10.431038 25.950222 C 12.207932 25.950222 13.842135 25.285236 15.115574 24.194868 L 13.41945 21.952213 C 12.590231 22.598356 11.621017 23.045273 10.369117 23.045273 C 7.703775 23.045273 6.109955 20.600697 6.109955 18.156124 C 6.109955 15.714241 7.703775 13.272358 10.369117 13.272358 C 11.621017 13.272358 12.611773 13.695044 13.41945 14.360033 L 15.115574 12.12007 C 13.842135 11.029705 12.207932 10.364716 10.431038 10.364716 C 6.371104 10.364716 3.100006 13.956192 3.100006 18.156124 Z M 26.100006 27.605965 L 26.100006 24.841011 L 15.761717 24.841011 L 15.761717 27.605965 Z"/>
                            </g>
                        </g>
                    </g>
                </g>
            </g>
        </g>
    </g>
</svg>
