<?xml version="1.0" encoding="UTF-8"?>
<!-- Generated by Pixelmator Pro Trial 3.3.2 -->
<svg width="36" height="36" viewBox="0 0 36 36" xmlns="http://www.w3.org/2000/svg" xmlns:xlink="http://www.w3.org/1999/xlink">
    <path id="Ellipse-copy" fill="#0d0821" fill-rule="evenodd" stroke="none" d="M 34 18 C 34 9.163445 26.836555 2 18 2 C 9.163445 2 2 9.163445 2 18 C 2 26.836555 9.163445 34 18 34 C 26.836555 34 34 26.836555 34 18 Z"/>
    <g id="Group">
        <linearGradient id="linearGradient1" x1="18.5" y1="34.632034" x2="18.5" y2="1.60561" gradientUnits="userSpaceOnUse">
            <stop offset="0" stop-color="#f97199" stop-opacity="1"/>
            <stop offset="1" stop-color="#ffde40" stop-opacity="1"/>
        </linearGradient>
        <path id="Path" fill="url(#linearGradient1)" stroke="none" d="M 18.5 1.60561 C 9.395308 1.60561 2 9.004383 2 18.118822 C 2 27.233263 9.395308 34.632034 18.5 34.632034 C 27.604691 34.632034 35 27.233263 35 18.118822 C 35 9.004383 27.604691 1.60561 18.5 1.60561 Z M 18.5 2.717697 C 27.019655 2.717697 33.912788 9.608913 33.912788 18.118822 C 33.912788 26.628731 27.019655 33.519947 18.5 33.519947 C 9.980342 33.519947 3.087209 26.628731 3.087209 18.118822 C 3.087209 9.608913 9.980342 2.717697 18.5 2.717697 Z"/>
        <path id="C-Background" fill="#0d0821" fill-rule="evenodd" stroke="none" d="M 12 18 C 12 12.477154 9.761423 8 7 8 C 4.238576 8 2 12.477154 2 18 C 2 23.522848 4.238576 28 7 28 C 9.761423 28 12 23.522848 12 18 Z"/>
        <text id="text1" xml:space="preserve" x="18" y="22" font-family="Arial" font-size="21" font-weight="700" fill="#ffffff">_</text>
        <text id="C" xml:space="preserve" x="3" y="26" font-family="Arial" font-size="21" font-weight="700" fill="#ffffff">C</text>
    </g>
</svg>
